<svg width="24" height="24" viewBox="0 0 24 24" fill="none" xmlns="http://www.w3.org/2000/svg">
<path fill-rule="evenodd" clip-rule="evenodd" d="M12 4C15.56 4 18.94 5.95213 21.25 9.34267C22.25 10.8091 22.25 13.2002 21.25 14.6573C20.09 16.3573 18.67 17.6929 17.09 18.6083C15.51 19.5143 13.78 20 12 20C8.44 20 5.06 18.0572 2.75 14.6573C1.75 13.1909 1.75 10.8091 2.75 9.34267C3.91 7.64273 5.33 6.30706 6.91 5.39171C8.49 4.4857 10.22 4 12 4ZM14.0799 11.9999C14.0799 13.1515 13.1515 14.0799 11.9999 14.0799C10.8483 14.0799 9.91992 13.1515 9.91992 11.9999C9.91992 10.8483 10.8483 9.91992 11.9999 9.91992C13.1515 9.91992 14.0799 10.8483 14.0799 11.9999ZM15.5799 11.9999C15.5799 13.9799 13.9799 15.5799 11.9999 15.5799C10.0199 15.5799 8.41992 13.9799 8.41992 11.9999C8.41992 10.0199 10.0199 8.41992 11.9999 8.41992C13.9799 8.41992 15.5799 10.0199 15.5799 11.9999Z" fill="color"/>
</svg>
