<svg width="32" height="23" viewBox="0 0 32 23" fill="none" xmlns="http://www.w3.org/2000/svg">
<g clip-path="url(#clip0_162_153)">
<mask id="mask0_162_153" style="mask-type:alpha" maskUnits="userSpaceOnUse" x="0" y="0" width="32" height="23">
<path d="M28.9524 0H3.04762C1.36447 0 0 1.37299 0 3.06667V19.9333C0 21.627 1.36447 23 3.04762 23H28.9524C30.6355 23 32 21.627 32 19.9333V3.06667C32 1.37299 30.6355 0 28.9524 0Z" fill="white"/>
</mask>
<g mask="url(#mask0_162_153)">
<path d="M28.9524 0H3.04762C1.36447 0 0 1.37299 0 3.06667V19.9333C0 21.627 1.36447 23 3.04762 23H28.9524C30.6355 23 32 21.627 32 19.9333V3.06667C32 1.37299 30.6355 0 28.9524 0Z" fill="#22438B"/>
<path fill-rule="evenodd" clip-rule="evenodd" d="M4.57137 1.53333L1.48413 1.57319L1.52375 4.59999L27.4011 21.5096L30.5051 21.4529L30.4472 18.4445L4.57137 1.53333Z" fill="white"/>
<path fill-rule="evenodd" clip-rule="evenodd" d="M3.04774 1.53333L1.52393 3.06666L28.9525 21.4667L30.4763 19.9333L3.04774 1.53333Z" fill="#C7152A"/>
<path fill-rule="evenodd" clip-rule="evenodd" d="M27.4286 1.53333H30.4762V4.59999C30.4762 4.59999 12.5714 15.9405 4.59888 21.5096C4.50288 21.5771 1.55431 21.5142 1.55431 21.5142L1.31812 18.5993L27.4286 1.53333Z" fill="white"/>
<path fill-rule="evenodd" clip-rule="evenodd" d="M29.018 1.49039L30.4763 3.06665L3.04774 21.4667L1.52393 19.9333L29.018 1.49039Z" fill="#C7152A"/>
<path fill-rule="evenodd" clip-rule="evenodd" d="M12.1906 1.53333H19.8096V7.66666H30.4763V15.3333H19.8096V21.4667H12.1906V15.3333H1.52393V7.66666H12.1906V1.53333Z" fill="white"/>
<path fill-rule="evenodd" clip-rule="evenodd" d="M13.7144 1.53333H18.2858V9.19999H30.4763V13.8H18.2858V21.4667H13.7144V13.8H1.52393V9.19999H13.7144V1.53333Z" fill="#C7152A"/>
<path d="M28.9524 0.766663H3.04768C1.78531 0.766663 0.761963 1.79641 0.761963 3.06666V19.9333C0.761963 21.2036 1.78531 22.2333 3.04768 22.2333H28.9524C30.2148 22.2333 31.2382 21.2036 31.2382 19.9333V3.06666C31.2382 1.79641 30.2148 0.766663 28.9524 0.766663Z" stroke="black" stroke-opacity="0.1"/>
</g>
</g>
<defs>
<clipPath id="clip0_162_153">
<rect width="32" height="23" fill="white"/>
</clipPath>
</defs>
</svg>
