<svg width="32" height="32" viewBox="0 0 32 32" fill="none" xmlns="http://www.w3.org/2000/svg">
<circle cx="16" cy="16" r="16" fill="#4C4C4C"/>
<path d="M16.0005 9.65284C18.0676 9.65284 18.3124 9.66058 19.129 9.69781C19.6199 9.70382 20.1062 9.79397 20.5667 9.96436C20.9007 10.0931 21.204 10.2904 21.4571 10.5435C21.7102 10.7966 21.9075 11.0999 22.0362 11.4338C22.2066 11.8944 22.2968 12.3807 22.3028 12.8716C22.3397 13.6882 22.3478 13.933 22.3478 16.0001C22.3478 18.0672 22.34 18.312 22.3028 19.1286C22.2968 19.6196 22.2066 20.1059 22.0362 20.5664C21.9075 20.9003 21.7102 21.2036 21.4571 21.4567C21.204 21.7098 20.9007 21.9071 20.5667 22.0359C20.1062 22.2063 19.6199 22.2964 19.129 22.3024C18.3127 22.3393 18.0679 22.3474 16.0005 22.3474C13.933 22.3474 13.6882 22.3397 12.872 22.3024C12.381 22.2964 11.8947 22.2063 11.4342 22.0359C11.1003 21.9071 10.797 21.7098 10.5439 21.4567C10.2908 21.2036 10.0935 20.9003 9.96472 20.5664C9.79434 20.1059 9.70418 19.6196 9.69818 19.1286C9.66131 18.312 9.6532 18.0672 9.6532 16.0001C9.6532 13.933 9.66094 13.6882 9.69818 12.8716C9.70418 12.3807 9.79434 11.8944 9.96472 11.4338C10.0935 11.0999 10.2908 10.7966 10.5439 10.5435C10.797 10.2904 11.1003 10.0931 11.4342 9.96436C11.8947 9.79397 12.381 9.70382 12.872 9.69781C13.6886 9.66095 13.9334 9.65284 16.0005 9.65284ZM16.0005 8.25781C13.8991 8.25781 13.6344 8.26666 12.8086 8.30426C12.166 8.31704 11.5303 8.43871 10.9284 8.66408C10.4121 8.85861 9.94444 9.16346 9.55808 9.55735C9.16384 9.94385 8.85873 10.4118 8.66407 10.9284C8.4387 11.5303 8.31704 12.166 8.30426 12.8086C8.26739 13.6337 8.25854 13.8984 8.25854 15.9997C8.25854 18.1011 8.26739 18.3658 8.305 19.1916C8.31778 19.8342 8.43944 20.4699 8.66481 21.0718C8.85925 21.5884 9.1641 22.0563 9.55808 22.4429C9.94465 22.8369 10.4126 23.1417 10.9291 23.3362C11.531 23.5615 12.1668 23.6832 12.8093 23.696C13.6351 23.7328 13.8987 23.7424 16.0012 23.7424C18.1037 23.7424 18.3673 23.7336 19.1931 23.696C19.8357 23.6832 20.4714 23.5615 21.0733 23.3362C21.5874 23.1369 22.0543 22.8325 22.4441 22.4424C22.8338 22.0524 23.1379 21.5853 23.3369 21.0711C23.5623 20.4692 23.6839 19.8335 23.6967 19.1909C23.7336 18.3658 23.7424 18.1011 23.7424 15.9997C23.7424 13.8984 23.7336 13.6337 23.696 12.8079C23.6832 12.1653 23.5615 11.5296 23.3361 10.9277C23.1417 10.4111 22.8369 9.94318 22.4429 9.55661C22.0563 9.16263 21.5884 8.85778 21.0718 8.66334C20.4699 8.43797 19.8342 8.31631 19.1916 8.30353C18.3666 8.26666 18.1019 8.25781 16.0005 8.25781Z" fill="white"/>
<path d="M16.0011 12.0244C15.2147 12.0244 14.4461 12.2576 13.7923 12.6944C13.1385 13.1313 12.6289 13.7522 12.328 14.4787C12.0271 15.2051 11.9484 16.0045 12.1018 16.7757C12.2552 17.5469 12.6338 18.2553 13.1898 18.8113C13.7458 19.3673 14.4542 19.746 15.2254 19.8994C15.9967 20.0528 16.796 19.974 17.5225 19.6731C18.2489 19.3722 18.8699 18.8626 19.3067 18.2088C19.7436 17.555 19.9767 16.7864 19.9767 16.0001C19.9767 14.9457 19.5579 13.9344 18.8123 13.1889C18.0667 12.4433 17.0555 12.0244 16.0011 12.0244ZM16.0011 18.5807C15.4907 18.5807 14.9917 18.4294 14.5673 18.1458C14.1429 17.8622 13.8122 17.4592 13.6169 16.9877C13.4215 16.5161 13.3704 15.9972 13.47 15.4966C13.5696 14.996 13.8154 14.5362 14.1763 14.1753C14.5372 13.8144 14.997 13.5686 15.4976 13.469C15.9982 13.3694 16.5171 13.4206 16.9886 13.6159C17.4602 13.8112 17.8632 14.142 18.1468 14.5664C18.4304 14.9907 18.5817 15.4897 18.5817 16.0001C18.5817 16.6845 18.3098 17.3409 17.8259 17.8249C17.3419 18.3088 16.6855 18.5807 16.0011 18.5807Z" fill="white"/>
<path d="M20.1334 12.7965C20.6465 12.7965 21.0624 12.3806 21.0624 11.8675C21.0624 11.3544 20.6465 10.9385 20.1334 10.9385C19.6203 10.9385 19.2043 11.3544 19.2043 11.8675C19.2043 12.3806 19.6203 12.7965 20.1334 12.7965Z" fill="white"/>
</svg>
