<svg width="32" height="32" viewBox="0 0 32 32" fill="none" xmlns="http://www.w3.org/2000/svg">
<circle cx="16" cy="16" r="16" fill="#4C4C4C"/>
<path d="M12.1448 10.6671C12.1446 11.0713 11.9838 11.4588 11.6979 11.7444C11.412 12.03 11.0244 12.1904 10.6202 12.1902C10.2161 12.19 9.82857 12.0293 9.54294 11.7433C9.25732 11.4574 9.09697 11.0698 9.09717 10.6656C9.09737 10.2615 9.25811 9.87398 9.54402 9.58835C9.82993 9.30273 10.2176 9.14238 10.6217 9.14258C11.0259 9.14278 11.4134 9.30352 11.699 9.58943C11.9846 9.87534 12.145 10.263 12.1448 10.6671ZM12.1905 13.3186H9.14288V22.8576H12.1905V13.3186ZM17.0057 13.3186H13.9734V22.8576H16.9753V17.8519C16.9753 15.0633 20.6095 14.8043 20.6095 17.8519V22.8576H23.6191V16.8157C23.6191 12.1148 18.24 12.29 16.9753 14.5986L17.0057 13.3186Z" fill="white"/>
</svg>
