<svg width="491" height="322" viewBox="0 0 491 322" fill="none" xmlns="http://www.w3.org/2000/svg">
<path d="M51.4992 295.819H111.154V300.66H51.4992V295.819Z" fill="#E7EBF2"/>
<path d="M55.3536 284.46C55.7557 283.225 56.9072 282.389 58.2062 282.389H104.603C105.902 282.389 107.053 283.225 107.455 284.46L111.154 295.819H51.6553L55.3536 284.46Z" fill="#E7EBF2"/>
<path d="M33.0717 89.9954V108.267H203.914L187.361 91.5571L33.0717 89.9954Z" stroke="#E7EBF2" stroke-width="2" stroke-miterlimit="10" stroke-linejoin="round"/>
<path d="M130.049 108.266V91.557L149.101 108.266V91.557L168.309 108.266V91.557L187.361 108.266V92.1817V91.557" stroke="#E7EBF2" stroke-width="2" stroke-miterlimit="10" stroke-linejoin="round"/>
<path d="M53.5292 108.267V90.3077" stroke="#E7EBF2" stroke-width="2" stroke-miterlimit="10" stroke-linejoin="round"/>
<path d="M110.841 91.557V108.266L91.7891 91.557" stroke="#E7EBF2" stroke-width="2" stroke-miterlimit="10" stroke-linejoin="round"/>
<path d="M91.7892 91.557V108.266" stroke="#E7EBF2" stroke-width="2" stroke-miterlimit="10" stroke-linejoin="round"/>
<path d="M71.1757 274.58H91.6331V72.9735L81.3263 63.4475L71.1757 72.9735V274.58Z" stroke="#E7EBF2" stroke-width="2" stroke-miterlimit="10" stroke-linejoin="round"/>
<path d="M91.6331 74.0667H71.1757" stroke="#E7EBF2" stroke-width="2" stroke-miterlimit="10"/>
<path d="M91.6331 125.601H71.1757" stroke="#E7EBF2" stroke-width="2" stroke-miterlimit="10" stroke-linejoin="round"/>
<path d="M91.6331 142.154H71.1757" stroke="#E7EBF2" stroke-width="2" stroke-miterlimit="10"/>
<path d="M91.6331 158.551H71.1757" stroke="#E7EBF2" stroke-width="2" stroke-miterlimit="10"/>
<path d="M91.6331 175.105H71.1757" stroke="#E7EBF2" stroke-width="2" stroke-miterlimit="10"/>
<path d="M91.6331 191.658H71.1757" stroke="#E7EBF2" stroke-width="2" stroke-miterlimit="10"/>
<path d="M91.6331 208.211H71.1757" stroke="#E7EBF2" stroke-width="2" stroke-miterlimit="10"/>
<path d="M91.6331 224.608H71.1757" stroke="#E7EBF2" stroke-width="2" stroke-miterlimit="10"/>
<path d="M91.6331 241.161H71.1757" stroke="#E7EBF2" stroke-width="2" stroke-miterlimit="10"/>
<path d="M91.6331 257.715H71.1757" stroke="#E7EBF2" stroke-width="2" stroke-miterlimit="10"/>
<path d="M172.213 91.4007L81.3262 63.4475L38.069 90.1514" stroke="#E7EBF2" stroke-width="2" stroke-miterlimit="10" stroke-linejoin="round"/>
<path d="M91.7892 108.266L71.1756 90.6197" stroke="#E7EBF2" stroke-width="2" stroke-miterlimit="10" stroke-linejoin="round"/>
<path d="M71.8003 108.891L91.1646 124.976" stroke="#E7EBF2" stroke-width="2" stroke-miterlimit="10" stroke-linejoin="round"/>
<path d="M71.8003 74.3791L91.3207 89.9954" stroke="#E7EBF2" stroke-width="2" stroke-miterlimit="10" stroke-linejoin="round"/>
<path d="M54.1538 90.6197L70.3948 107.954" stroke="#E7EBF2" stroke-width="2" stroke-miterlimit="10" stroke-linejoin="round"/>
<path d="M53.0607 107.954L33.2279 90.6197" stroke="#E7EBF2" stroke-width="2" stroke-miterlimit="10" stroke-linejoin="round"/>
<path d="M111.466 91.4007L129.425 107.486" stroke="#E7EBF2" stroke-width="2" stroke-miterlimit="10" stroke-linejoin="round"/>
<path d="M71.9565 126.069L91.1646 141.529" stroke="#E7EBF2" stroke-width="2" stroke-miterlimit="10" stroke-linejoin="round"/>
<path d="M71.9565 142.779L91.1646 157.926" stroke="#E7EBF2" stroke-width="2" stroke-miterlimit="10" stroke-linejoin="round"/>
<path d="M71.8003 159.176L91.1646 174.48" stroke="#E7EBF2" stroke-width="2" stroke-miterlimit="10" stroke-linejoin="round"/>
<path d="M71.8003 175.885L91.1646 191.033" stroke="#E7EBF2" stroke-width="2" stroke-miterlimit="10" stroke-linejoin="round"/>
<path d="M71.8003 192.282L91.1646 207.43" stroke="#E7EBF2" stroke-width="2" stroke-miterlimit="10" stroke-linejoin="round"/>
<path d="M71.8003 208.68L91.1646 223.984" stroke="#E7EBF2" stroke-width="2" stroke-miterlimit="10" stroke-linejoin="round"/>
<path d="M71.8003 225.233L91.1646 240.537" stroke="#E7EBF2" stroke-width="2" stroke-miterlimit="10" stroke-linejoin="round"/>
<path d="M71.8003 241.786L91.1646 257.09" stroke="#E7EBF2" stroke-width="2" stroke-miterlimit="10" stroke-linejoin="round"/>
<path d="M71.8003 258.495L91.1646 273.643" stroke="#E7EBF2" stroke-width="2" stroke-miterlimit="10" stroke-linejoin="round"/>
<path d="M61.3072 274.424H101.345C102.45 274.424 103.345 275.32 103.345 276.424V282.389H59.3072V276.424C59.3072 275.32 60.2026 274.424 61.3072 274.424Z" fill="#E7EBF2"/>
<path d="M113.964 123.414L102.252 135.127C101.471 135.908 100.378 136.376 99.4412 136.376H70.0825V108.891H115.37V120.447C115.058 121.697 114.745 122.634 113.964 123.414Z" fill="#E7EBF2"/>
<path d="M87.5308 121.367L75.7885 121.367C75.2362 121.367 74.7885 120.919 74.7885 120.367L74.7885 114.403C74.7885 113.851 75.2362 113.403 75.7885 113.403L87.5308 113.403C88.0831 113.403 88.5308 113.851 88.5308 114.403L88.5308 120.367C88.5308 120.919 88.0831 121.367 87.5308 121.367Z" fill="white"/>
<path d="M105.296 121.367L93.5537 121.367C93.0014 121.367 92.5537 120.919 92.5537 120.367L92.5537 114.402C92.5537 113.85 93.0014 113.402 93.5537 113.402L105.296 113.402C105.848 113.402 106.296 113.85 106.296 114.402L106.296 120.367C106.296 120.919 105.848 121.367 105.296 121.367Z" fill="white"/>
<path d="M36.1333 251.836H30.0102V301.808H36.1333V251.836Z" fill="#B9C0D0"/>
<path d="M79.5873 251.836H73.4642V301.808H79.5873V251.836Z" fill="#B9C0D0"/>
<path d="M264.464 300.03C247.873 300.425 228.121 300.03 214.097 299.833C200.073 300.228 180.322 300.425 163.73 300.03C180.124 290.747 185.655 273.563 186.642 262.107H241.355C242.54 273.563 248.07 290.747 264.464 300.03Z" fill="url(#paint0_linear_1_3)"/>
<path d="M317.004 118.314V260.329C317.004 263.885 314.239 266.452 310.881 266.452H117.313C113.955 266.452 111.19 263.687 111.19 260.329V118.314C111.19 114.956 113.955 112.191 117.313 112.191H310.881C314.239 112.191 317.004 114.758 317.004 118.314Z" fill="#E8EDF8"/>
<path d="M317.004 118.314V240.775H111.388V118.314C111.388 114.956 114.153 112.191 117.511 112.191H311.079C314.239 112.191 317.004 114.758 317.004 118.314Z" fill="#B9C0D0"/>
<path d="M309.696 119.696H118.696V233.664H309.499V119.696H309.696Z" fill="white"/>
<path d="M214.097 258.551C216.934 258.551 219.233 256.252 219.233 253.416C219.233 250.579 216.934 248.28 214.097 248.28C211.261 248.28 208.962 250.579 208.962 253.416C208.962 256.252 211.261 258.551 214.097 258.551Z" fill="#B9C0D0"/>
<path d="M429.924 257.367H424.591V301.216H429.924V257.367Z" fill="#B9C0D0"/>
<path d="M468.045 257.367H462.712V301.216H468.045V257.367Z" fill="#B9C0D0"/>
<path d="M474.761 259.342H418.666V277.316H474.761V259.342Z" fill="#E8EDF8"/>
<path d="M432.294 259.342L426.369 277.316H419.653L425.381 259.342H432.294Z" fill="url(#paint1_linear_1_3)"/>
<path d="M445.923 259.342L439.997 277.316H433.282L439.01 259.342H445.923Z" fill="url(#paint2_linear_1_3)"/>
<path d="M459.552 259.342L453.626 277.316H446.911L452.639 259.342H459.552Z" fill="url(#paint3_linear_1_3)"/>
<path d="M473.18 259.342L467.255 277.316H460.539L466.267 259.342H473.18Z" fill="url(#paint4_linear_1_3)"/>
<path d="M87.2904 254.206H23.2944V274.748H87.2904V254.206Z" fill="#E8EDF8"/>
<path d="M38.7009 254.206L31.9853 274.551H24.282L30.9977 254.206H38.7009Z" fill="url(#paint5_linear_1_3)"/>
<path d="M54.3049 254.206L47.5893 274.551H39.886L46.4041 254.206H54.3049Z" fill="url(#paint6_linear_1_3)"/>
<path d="M69.9089 254.206L63.1933 274.551H55.4901L62.0082 254.206H69.9089Z" fill="url(#paint7_linear_1_3)"/>
<path d="M85.5128 254.206L78.7972 274.551H71.094L77.6121 254.206H85.5128Z" fill="url(#paint8_linear_1_3)"/>
<path d="M239.182 57.0832V81.1804" stroke="#BBC1CF" stroke-width="2" stroke-miterlimit="10" stroke-linejoin="round"/>
<path d="M239.281 91.6488C243.153 91.6488 246.293 88.5094 246.293 84.6369C246.293 80.7643 243.153 77.625 239.281 77.625C235.408 77.625 232.269 80.7643 232.269 84.6369C232.269 88.5094 235.408 91.6488 239.281 91.6488Z" fill="#B9C0D0"/>
<path d="M232.467 103.302C232.467 107.648 236.417 111.203 241.157 110.018C243.725 109.425 245.7 107.45 246.293 104.883C247.083 101.13 244.91 97.5744 241.552 96.5868C240.367 96.1918 239.577 95.2042 239.577 93.8215V87.6985" stroke="#BBC1CF" stroke-width="2" stroke-miterlimit="10" stroke-linejoin="round"/>
<path d="M409.838 295.29H334.386V301.413H409.838V295.29Z" fill="url(#paint9_linear_1_3)"/>
<path d="M404.784 280.375C404.382 279.139 403.231 278.303 401.932 278.303H342.095C340.796 278.303 339.644 279.139 339.242 280.375L334.386 295.29H409.64L404.784 280.375Z" fill="#CAD0DD"/>
<path d="M433.145 34.9604V58.07H217.06L237.997 36.9356L433.145 34.9604Z" stroke="#BBC1CF" stroke-width="2" stroke-miterlimit="10" stroke-linejoin="round"/>
<path d="M310.486 58.07V36.9355L286.389 58.07V36.9355L262.094 58.07V36.9355L237.997 58.07V37.7256V36.9355" stroke="#BBC1CF" stroke-width="2" stroke-miterlimit="10" stroke-linejoin="round"/>
<path d="M407.27 58.0701V35.3555" stroke="#BBC1CF" stroke-width="2" stroke-miterlimit="10" stroke-linejoin="round"/>
<path d="M334.781 36.9355V58.07L358.878 36.9355" stroke="#BBC1CF" stroke-width="2" stroke-miterlimit="10" stroke-linejoin="round"/>
<path d="M358.878 36.9355V58.07" stroke="#BBC1CF" stroke-width="2" stroke-miterlimit="10" stroke-linejoin="round"/>
<path d="M384.95 268.427H359.076V13.4309L372.112 1.38232L384.95 13.4309V268.427Z" stroke="#BBC1CF" stroke-width="2" stroke-miterlimit="10" stroke-linejoin="round"/>
<path d="M359.076 14.8138H384.95" stroke="#BBC1CF" stroke-width="2" stroke-miterlimit="10"/>
<path d="M359.076 79.9948H384.95" stroke="#BBC1CF" stroke-width="2" stroke-miterlimit="10" stroke-linejoin="round"/>
<path d="M359.076 100.931H384.95" stroke="#BBC1CF" stroke-width="2" stroke-miterlimit="10"/>
<path d="M359.076 121.671H384.95" stroke="#BBC1CF" stroke-width="2" stroke-miterlimit="10"/>
<path d="M359.076 142.608H384.95" stroke="#BBC1CF" stroke-width="2" stroke-miterlimit="10"/>
<path d="M359.076 163.545H384.95" stroke="#BBC1CF" stroke-width="2" stroke-miterlimit="10"/>
<path d="M359.076 184.482H384.95" stroke="#BBC1CF" stroke-width="2" stroke-miterlimit="10"/>
<path d="M359.076 205.221H384.95" stroke="#BBC1CF" stroke-width="2" stroke-miterlimit="10"/>
<path d="M359.076 226.158H384.95" stroke="#BBC1CF" stroke-width="2" stroke-miterlimit="10"/>
<path d="M359.076 247.095H384.95" stroke="#BBC1CF" stroke-width="2" stroke-miterlimit="10"/>
<path d="M257.156 36.7381L372.112 1.38232L426.824 35.1579" stroke="#BBC1CF" stroke-width="2" stroke-miterlimit="10" stroke-linejoin="round"/>
<path d="M358.878 58.0699L384.95 35.7503" stroke="#BBC1CF" stroke-width="2" stroke-miterlimit="10" stroke-linejoin="round"/>
<path d="M384.16 58.8603L359.668 79.2047" stroke="#BBC1CF" stroke-width="2" stroke-miterlimit="10" stroke-linejoin="round"/>
<path d="M384.16 15.2086L359.47 34.9604" stroke="#BBC1CF" stroke-width="2" stroke-miterlimit="10" stroke-linejoin="round"/>
<path d="M406.48 35.7503L385.938 57.6748" stroke="#BBC1CF" stroke-width="2" stroke-miterlimit="10" stroke-linejoin="round"/>
<path d="M407.863 57.6748L432.947 35.7503" stroke="#BBC1CF" stroke-width="2" stroke-miterlimit="10" stroke-linejoin="round"/>
<path d="M333.991 36.7379L311.276 57.0822" stroke="#BBC1CF" stroke-width="2" stroke-miterlimit="10" stroke-linejoin="round"/>
<path d="M383.963 80.5873L359.668 100.142" stroke="#BBC1CF" stroke-width="2" stroke-miterlimit="10" stroke-linejoin="round"/>
<path d="M383.963 101.722L359.668 120.881" stroke="#BBC1CF" stroke-width="2" stroke-miterlimit="10" stroke-linejoin="round"/>
<path d="M384.16 122.461L359.668 141.818" stroke="#BBC1CF" stroke-width="2" stroke-miterlimit="10" stroke-linejoin="round"/>
<path d="M384.16 143.596L359.668 162.755" stroke="#BBC1CF" stroke-width="2" stroke-miterlimit="10" stroke-linejoin="round"/>
<path d="M384.16 164.335L359.668 183.494" stroke="#BBC1CF" stroke-width="2" stroke-miterlimit="10" stroke-linejoin="round"/>
<path d="M384.16 185.074L359.668 204.431" stroke="#BBC1CF" stroke-width="2" stroke-miterlimit="10" stroke-linejoin="round"/>
<path d="M384.16 206.012L359.668 225.368" stroke="#BBC1CF" stroke-width="2" stroke-miterlimit="10" stroke-linejoin="round"/>
<path d="M384.16 226.948L359.668 246.305" stroke="#BBC1CF" stroke-width="2" stroke-miterlimit="10" stroke-linejoin="round"/>
<path d="M384.16 248.082L359.668 267.242" stroke="#BBC1CF" stroke-width="2" stroke-miterlimit="10" stroke-linejoin="round"/>
<path d="M397.962 268.23H346.262C345.157 268.23 344.262 269.125 344.262 270.23V278.303H399.962V270.23C399.962 269.125 399.067 268.23 397.962 268.23Z" fill="url(#paint10_linear_1_3)"/>
<path d="M153.064 226.751H128.572C126.597 226.751 125.016 225.171 125.016 223.196V128.782C125.016 126.807 126.597 125.227 128.572 125.227H153.064C155.039 125.227 156.619 126.807 156.619 128.782V223.196C156.619 225.171 155.039 226.751 153.064 226.751Z" fill="#E8EDF8"/>
<path d="M140.818 144.189C144.09 144.189 146.743 141.536 146.743 138.263C146.743 134.99 144.09 132.337 140.818 132.337C137.545 132.337 134.892 134.99 134.892 138.263C134.892 141.536 137.545 144.189 140.818 144.189Z" fill="url(#paint11_linear_1_3)"/>
<path d="M151.286 152.879H130.349C129.954 152.879 129.757 152.682 129.757 152.287V150.707C129.757 150.312 129.954 150.114 130.349 150.114H151.089C151.484 150.114 151.681 150.312 151.681 150.707V152.287C151.879 152.682 151.484 152.879 151.286 152.879Z" fill="url(#paint12_linear_1_3)"/>
<path d="M151.286 161.175H130.349C129.954 161.175 129.757 160.977 129.757 160.582V159.002C129.757 158.607 129.954 158.41 130.349 158.41H151.089C151.484 158.41 151.681 158.607 151.681 159.002V160.582C151.879 160.977 151.484 161.175 151.286 161.175Z" fill="url(#paint13_linear_1_3)"/>
<path d="M151.286 169.471H130.349C129.954 169.471 129.757 169.273 129.757 168.878V167.298C129.757 166.903 129.954 166.706 130.349 166.706H151.089C151.484 166.706 151.681 166.903 151.681 167.298V168.878C151.879 169.273 151.484 169.471 151.286 169.471Z" fill="url(#paint14_linear_1_3)"/>
<path d="M151.286 177.964H130.349C129.954 177.964 129.757 177.766 129.757 177.371V175.791C129.757 175.396 129.954 175.198 130.349 175.198H151.089C151.484 175.198 151.681 175.396 151.681 175.791V177.371C151.879 177.569 151.484 177.964 151.286 177.964Z" fill="url(#paint15_linear_1_3)"/>
<path d="M151.286 186.26H130.349C129.954 186.26 129.757 186.062 129.757 185.667V184.087C129.757 183.692 129.954 183.495 130.349 183.495H151.089C151.484 183.495 151.681 183.692 151.681 184.087V185.667C151.879 185.865 151.484 186.26 151.286 186.26Z" fill="url(#paint16_linear_1_3)"/>
<path d="M151.286 194.555H130.349C129.954 194.555 129.757 194.358 129.757 193.962V192.382C129.757 191.987 129.954 191.79 130.349 191.79H151.089C151.484 191.79 151.681 191.987 151.681 192.382V193.962C151.879 194.358 151.484 194.555 151.286 194.555Z" fill="url(#paint17_linear_1_3)"/>
<path d="M147.534 202.851H134.3C133.905 202.851 133.707 202.654 133.707 202.259V200.679C133.707 200.284 133.905 200.086 134.3 200.086H147.534C147.929 200.086 148.126 200.284 148.126 200.679V202.259C148.126 202.654 147.731 202.851 147.534 202.851Z" fill="url(#paint18_linear_1_3)"/>
<path d="M226.739 212.529H174.001V215.492H226.739V212.529Z" fill="url(#paint19_linear_1_3)"/>
<path d="M202.641 220.43H174.001V223.393H202.641V220.43Z" fill="url(#paint20_linear_1_3)"/>
<path d="M290.142 212.529H237.405V215.492H290.142V212.529Z" fill="url(#paint21_linear_1_3)"/>
<path d="M266.045 220.43H237.405V223.393H266.045V220.43Z" fill="url(#paint22_linear_1_3)"/>
<path d="M193.046 116.238L234.859 107.919C237.923 107.262 240.988 107.919 243.396 109.451L275.576 128.059" stroke="#BBC1CF" stroke-width="2" stroke-miterlimit="10" stroke-linejoin="round"/>
<g filter="url(#filter0_d_1_3)">
<path d="M275.116 216.28L169.207 200.3C165.924 199.862 163.734 196.797 164.172 193.513L174.899 117.113C175.337 113.829 178.401 111.64 181.685 112.078L287.594 128.059C290.878 128.496 293.067 131.561 292.629 134.845L281.902 211.245C281.465 214.31 278.4 216.718 275.116 216.28Z" fill="white"/>
</g>
<path d="M271.648 207.586L176.974 192.799C174.298 192.442 172.514 189.945 172.871 187.268L181.613 124.998C181.97 122.322 184.468 120.538 187.144 120.894L281.818 135.681C284.495 136.038 286.279 138.536 285.922 141.212L277.179 203.482C276.823 205.98 274.325 207.943 271.648 207.586Z" fill="#EFF3FB"/>
<path d="M330.831 77.2298L345.645 92.0437C346.632 93.0313 348.015 93.6238 349.2 93.6238H386.333V58.8606H329.053V73.477C329.448 75.0571 329.843 76.2422 330.831 77.2298Z" fill="#B9C0D0"/>
<path d="M363.999 74.6401L379.381 74.6401C379.933 74.6401 380.381 74.1924 380.381 73.6401L380.381 65.5667C380.381 65.0144 379.933 64.5667 379.381 64.5667L363.999 64.5667C363.447 64.5667 362.999 65.0144 362.999 65.5667L362.999 73.6401C362.999 74.1924 363.447 74.6401 363.999 74.6401Z" fill="white"/>
<path d="M341.53 74.6401L356.911 74.6401C357.464 74.6401 357.911 74.1924 357.911 73.6401L357.911 65.5667C357.911 65.0144 357.464 64.5667 356.911 64.5667L341.53 64.5667C340.977 64.5667 340.53 65.0144 340.53 65.5667L340.53 73.6401C340.53 74.1924 340.977 74.6401 341.53 74.6401Z" fill="white"/>
<path d="M2.35754 301.808H489" stroke="#CDD6E1" stroke-width="3" stroke-miterlimit="10" stroke-linecap="round" stroke-linejoin="round"/>
<path d="M170.633 300.229H143.968L145.153 297.266L147.918 289.76L150.289 283.242L153.054 275.736L155.029 270.601C155.424 269.613 156.412 268.823 157.399 268.823C158.387 268.823 159.374 269.416 159.769 270.601L161.745 275.736L164.51 283.242L166.88 289.76L169.645 297.266L170.633 300.229Z" fill="#E8EDF8"/>
<path d="M164.517 283.242H150.305L152.976 275.934H161.808L164.517 283.242Z" fill="url(#paint23_linear_1_3)"/>
<path d="M169.637 297.266H145.145L147.91 289.76H166.872L169.637 297.266Z" fill="url(#paint24_linear_1_3)"/>
<path d="M170.633 300.229H143.771C142.981 300.229 142.19 299.636 142.19 298.649C142.19 297.859 142.783 297.069 143.771 297.069H170.633C171.423 297.069 172.213 297.661 172.213 298.649C172.213 299.636 171.621 300.229 170.633 300.229Z" fill="#E8EDF8"/>
<path d="M316.757 300.229H290.092L291.277 297.266L294.042 289.76L296.412 283.242L299.178 275.736L301.153 270.601C301.548 269.613 302.536 268.823 303.523 268.823C304.511 268.823 305.498 269.416 305.893 270.601L307.869 275.736L310.634 283.242L313.004 289.76L315.769 297.266L316.757 300.229Z" fill="#E8EDF8"/>
<path d="M310.641 283.242H296.428L299.099 275.934H307.932L310.641 283.242Z" fill="url(#paint25_linear_1_3)"/>
<path d="M315.761 297.266H291.268L294.034 289.76H312.995L315.761 297.266Z" fill="url(#paint26_linear_1_3)"/>
<path d="M316.757 300.229H289.894C289.104 300.229 288.314 299.636 288.314 298.649C288.314 297.859 288.907 297.069 289.894 297.069H316.757C317.547 297.069 318.337 297.661 318.337 298.649C318.337 299.636 317.744 300.229 316.757 300.229Z" fill="#E8EDF8"/>
<path d="M208.28 166.535C211.076 166.96 213.802 164.953 214.227 162.157C214.652 159.36 212.646 156.634 209.849 156.209C207.052 155.784 204.326 157.791 203.901 160.588C203.476 163.384 205.483 166.11 208.28 166.535Z" fill="#989FB0"/>
<path d="M247.862 172.55C250.659 172.975 253.385 170.968 253.81 168.172C254.234 165.375 252.228 162.649 249.431 162.224C246.635 161.799 243.909 163.806 243.484 166.603C243.026 169.614 245.065 172.125 247.862 172.55Z" fill="#989FB0"/>
<path d="M211.458 144.261L199.169 148.667L200.271 151.739L212.56 147.333L211.458 144.261Z" fill="#989FB0"/>
<path d="M250.553 150.118L248.588 152.725L259.015 160.582L260.979 157.975L250.553 150.118Z" fill="#989FB0"/>
<path d="M226.24 181.589C229.567 182.095 232.571 180.482 232.95 177.987C233.329 175.492 230.94 173.06 227.613 172.554C224.287 172.049 221.282 173.661 220.903 176.156C220.524 178.651 222.914 181.084 226.24 181.589Z" fill="#989FB0"/>
<path d="M142.786 319.673H405.185" stroke="#CDD6E1" stroke-width="3" stroke-miterlimit="10" stroke-linecap="round" stroke-linejoin="round"/>
<path d="M57.4394 319.673H90.5997" stroke="#CDD6E1" stroke-width="3" stroke-miterlimit="10" stroke-linecap="round" stroke-linejoin="round"/>
<defs>
<filter id="filter0_d_1_3" x="142.117" y="107.022" width="172.568" height="148.309" filterUnits="userSpaceOnUse" color-interpolation-filters="sRGB">
<feFlood flood-opacity="0" result="BackgroundImageFix"/>
<feColorMatrix in="SourceAlpha" type="matrix" values="0 0 0 0 0 0 0 0 0 0 0 0 0 0 0 0 0 0 127 0" result="hardAlpha"/>
<feOffset dy="17"/>
<feGaussianBlur stdDeviation="11"/>
<feColorMatrix type="matrix" values="0 0 0 0 0.397708 0 0 0 0 0.47749 0 0 0 0 0.575 0 0 0 0.37 0"/>
<feBlend mode="normal" in2="BackgroundImageFix" result="effect1_dropShadow_1_3"/>
<feBlend mode="normal" in="SourceGraphic" in2="effect1_dropShadow_1_3" result="shape"/>
</filter>
<linearGradient id="paint0_linear_1_3" x1="214.185" y1="299.089" x2="214.185" y2="265.157" gradientUnits="userSpaceOnUse">
<stop stop-color="#F5F8FF"/>
<stop offset="0.9913" stop-color="#D8E0EB"/>
</linearGradient>
<linearGradient id="paint1_linear_1_3" x1="425.974" y1="259.342" x2="425.974" y2="277.316" gradientUnits="userSpaceOnUse">
<stop stop-color="#E3E8F0"/>
<stop offset="1" stop-color="#CCD3DE"/>
</linearGradient>
<linearGradient id="paint2_linear_1_3" x1="439.602" y1="259.342" x2="439.602" y2="277.316" gradientUnits="userSpaceOnUse">
<stop stop-color="#E3E8F0"/>
<stop offset="1" stop-color="#CCD3DE"/>
</linearGradient>
<linearGradient id="paint3_linear_1_3" x1="453.231" y1="259.342" x2="453.231" y2="277.316" gradientUnits="userSpaceOnUse">
<stop stop-color="#E3E8F0"/>
<stop offset="1" stop-color="#CCD3DE"/>
</linearGradient>
<linearGradient id="paint4_linear_1_3" x1="466.86" y1="259.342" x2="466.86" y2="277.316" gradientUnits="userSpaceOnUse">
<stop stop-color="#E3E8F0"/>
<stop offset="1" stop-color="#CCD3DE"/>
</linearGradient>
<linearGradient id="paint5_linear_1_3" x1="31.4915" y1="254.206" x2="31.4915" y2="274.551" gradientUnits="userSpaceOnUse">
<stop stop-color="#E3E8F0"/>
<stop offset="1" stop-color="#CCD3DE"/>
</linearGradient>
<linearGradient id="paint6_linear_1_3" x1="47.0955" y1="254.206" x2="47.0955" y2="274.551" gradientUnits="userSpaceOnUse">
<stop stop-color="#E3E8F0"/>
<stop offset="1" stop-color="#CCD3DE"/>
</linearGradient>
<linearGradient id="paint7_linear_1_3" x1="62.6995" y1="254.206" x2="62.6995" y2="274.551" gradientUnits="userSpaceOnUse">
<stop stop-color="#E3E8F0"/>
<stop offset="1" stop-color="#CCD3DE"/>
</linearGradient>
<linearGradient id="paint8_linear_1_3" x1="78.3034" y1="254.206" x2="78.3034" y2="274.551" gradientUnits="userSpaceOnUse">
<stop stop-color="#E3E8F0"/>
<stop offset="1" stop-color="#CCD3DE"/>
</linearGradient>
<linearGradient id="paint9_linear_1_3" x1="334.318" y1="298.236" x2="409.711" y2="298.236" gradientUnits="userSpaceOnUse">
<stop stop-color="#B0BACC"/>
<stop offset="1" stop-color="#969EAE"/>
</linearGradient>
<linearGradient id="paint10_linear_1_3" x1="344.341" y1="273.34" x2="399.988" y2="273.34" gradientUnits="userSpaceOnUse">
<stop stop-color="#B0BACC"/>
<stop offset="1" stop-color="#969EAE"/>
</linearGradient>
<linearGradient id="paint11_linear_1_3" x1="144.525" y1="132.337" x2="137.058" y2="132.337" gradientUnits="userSpaceOnUse">
<stop stop-color="#E3E8F0"/>
<stop offset="1" stop-color="#CCD3DE"/>
</linearGradient>
<linearGradient id="paint12_linear_1_3" x1="147.62" y1="150.114" x2="133.773" y2="150.114" gradientUnits="userSpaceOnUse">
<stop stop-color="#E3E8F0"/>
<stop offset="1" stop-color="#CCD3DE"/>
</linearGradient>
<linearGradient id="paint13_linear_1_3" x1="147.62" y1="158.41" x2="133.773" y2="158.41" gradientUnits="userSpaceOnUse">
<stop stop-color="#E3E8F0"/>
<stop offset="1" stop-color="#CCD3DE"/>
</linearGradient>
<linearGradient id="paint14_linear_1_3" x1="147.62" y1="166.706" x2="133.773" y2="166.706" gradientUnits="userSpaceOnUse">
<stop stop-color="#E3E8F0"/>
<stop offset="1" stop-color="#CCD3DE"/>
</linearGradient>
<linearGradient id="paint15_linear_1_3" x1="147.62" y1="175.198" x2="133.773" y2="175.198" gradientUnits="userSpaceOnUse">
<stop stop-color="#E3E8F0"/>
<stop offset="1" stop-color="#CCD3DE"/>
</linearGradient>
<linearGradient id="paint16_linear_1_3" x1="147.62" y1="183.495" x2="133.773" y2="183.495" gradientUnits="userSpaceOnUse">
<stop stop-color="#E3E8F0"/>
<stop offset="1" stop-color="#CCD3DE"/>
</linearGradient>
<linearGradient id="paint17_linear_1_3" x1="147.62" y1="191.79" x2="133.773" y2="191.79" gradientUnits="userSpaceOnUse">
<stop stop-color="#E3E8F0"/>
<stop offset="1" stop-color="#CCD3DE"/>
</linearGradient>
<linearGradient id="paint18_linear_1_3" x1="145.427" y1="200.086" x2="136.342" y2="200.086" gradientUnits="userSpaceOnUse">
<stop stop-color="#E3E8F0"/>
<stop offset="1" stop-color="#CCD3DE"/>
</linearGradient>
<linearGradient id="paint19_linear_1_3" x1="216.865" y1="212.529" x2="183.639" y2="212.529" gradientUnits="userSpaceOnUse">
<stop stop-color="#E3E8F0"/>
<stop offset="1" stop-color="#CCD3DE"/>
</linearGradient>
<linearGradient id="paint20_linear_1_3" x1="197.279" y1="220.43" x2="179.235" y2="220.43" gradientUnits="userSpaceOnUse">
<stop stop-color="#E3E8F0"/>
<stop offset="1" stop-color="#CCD3DE"/>
</linearGradient>
<linearGradient id="paint21_linear_1_3" x1="280.268" y1="212.529" x2="247.042" y2="212.529" gradientUnits="userSpaceOnUse">
<stop stop-color="#E3E8F0"/>
<stop offset="1" stop-color="#CCD3DE"/>
</linearGradient>
<linearGradient id="paint22_linear_1_3" x1="260.683" y1="220.43" x2="242.638" y2="220.43" gradientUnits="userSpaceOnUse">
<stop stop-color="#E3E8F0"/>
<stop offset="1" stop-color="#CCD3DE"/>
</linearGradient>
<linearGradient id="paint23_linear_1_3" x1="161.856" y1="275.934" x2="152.902" y2="275.934" gradientUnits="userSpaceOnUse">
<stop stop-color="#E3E8F0"/>
<stop offset="1" stop-color="#CCD3DE"/>
</linearGradient>
<linearGradient id="paint24_linear_1_3" x1="165.051" y1="289.76" x2="149.621" y2="289.76" gradientUnits="userSpaceOnUse">
<stop stop-color="#E3E8F0"/>
<stop offset="1" stop-color="#CCD3DE"/>
</linearGradient>
<linearGradient id="paint25_linear_1_3" x1="307.98" y1="275.934" x2="299.026" y2="275.934" gradientUnits="userSpaceOnUse">
<stop stop-color="#E3E8F0"/>
<stop offset="1" stop-color="#CCD3DE"/>
</linearGradient>
<linearGradient id="paint26_linear_1_3" x1="311.175" y1="289.76" x2="295.744" y2="289.76" gradientUnits="userSpaceOnUse">
<stop stop-color="#E3E8F0"/>
<stop offset="1" stop-color="#CCD3DE"/>
</linearGradient>
</defs>
</svg>
