<svg width="32" height="24" viewBox="0 0 32 24" fill="none" xmlns="http://www.w3.org/2000/svg">
<g clip-path="url(#clip0_136_610)">
<mask id="mask0_136_610" style="mask-type:alpha" maskUnits="userSpaceOnUse" x="0" y="0" width="32" height="24">
<path d="M28.9524 0.571426H3.04762C1.36447 0.571426 0 1.93589 0 3.61905V20.381C0 22.0641 1.36447 23.4286 3.04762 23.4286H28.9524C30.6355 23.4286 32 22.0641 32 20.381V3.61905C32 1.93589 30.6355 0.571426 28.9524 0.571426Z" fill="white"/>
</mask>
<g mask="url(#mask0_136_610)">
<path d="M28.9524 0.571426H3.04762C1.36447 0.571426 0 1.93589 0 3.61905V20.381C0 22.0641 1.36447 23.4286 3.04762 23.4286H28.9524C30.6355 23.4286 32 22.0641 32 20.381V3.61905C32 1.93589 30.6355 0.571426 28.9524 0.571426Z" fill="#DC220D"/>
<path fill-rule="evenodd" clip-rule="evenodd" d="M16.003 14.7886L12.8183 16.4648L13.4278 12.9189L10.8525 10.4091L14.4122 9.89105L16.003 6.66667L17.5954 9.89105L21.1535 10.4091L18.5783 12.9189L19.1878 16.4632" fill="#FFFF00"/>
<path d="M28.9524 1.33333H3.04768C1.78531 1.33333 0.761963 2.35668 0.761963 3.61904V20.3809C0.761963 21.6433 1.78531 22.6667 3.04768 22.6667H28.9524C30.2148 22.6667 31.2382 21.6433 31.2382 20.3809V3.61904C31.2382 2.35668 30.2148 1.33333 28.9524 1.33333Z" stroke="black" stroke-opacity="0.1"/>
</g>
</g>
<defs>
<clipPath id="clip0_136_610">
<rect width="32" height="22.8571" fill="white" transform="translate(0 0.571426)"/>
</clipPath>
</defs>
</svg>
