<svg width="32" height="32" viewBox="0 0 32 32" fill="none" xmlns="http://www.w3.org/2000/svg">
<circle cx="16" cy="16" r="16" fill="#4C4C4C"/>
<g clip-path="url(#clip0_30_4837)">
<path d="M14.1144 18.4286L19.0078 15.6L14.1144 12.7714V18.4286ZM25.0138 11.046C25.1364 11.4891 25.2212 12.0831 25.2778 12.8374C25.3438 13.5917 25.3721 14.2423 25.3721 14.808L25.4287 15.6C25.4287 17.6649 25.2778 19.1829 25.0138 20.154C24.7781 21.0026 24.2312 21.5494 23.3827 21.7851C22.9395 21.9077 22.1287 21.9926 20.8841 22.0491C19.6584 22.1151 18.5364 22.1434 17.4992 22.1434L16.0001 22.2C12.0495 22.2 9.58868 22.0491 8.61753 21.7851C7.76896 21.5494 7.2221 21.0026 6.98639 20.154C6.86382 19.7109 6.77896 19.1169 6.72239 18.3626C6.65639 17.6083 6.6281 16.9577 6.6281 16.392L6.57153 15.6C6.57153 13.5351 6.72239 12.0171 6.98639 11.046C7.2221 10.1974 7.76896 9.65057 8.61753 9.41486C9.06068 9.29229 9.87153 9.20743 11.1161 9.15086C12.3418 9.08486 13.4638 9.05657 14.501 9.05657L16.0001 9C19.9507 9 22.4115 9.15086 23.3827 9.41486C24.2312 9.65057 24.7781 10.1974 25.0138 11.046Z" fill="white"/>
</g>
<defs>
<clipPath id="clip0_30_4837">
<rect width="18.8571" height="13.2" fill="white" transform="translate(6.57153 9)"/>
</clipPath>
</defs>
</svg>
