<svg width="32" height="32" viewBox="0 0 32 32" fill="none" xmlns="http://www.w3.org/2000/svg">
<circle cx="16" cy="16" r="16" fill="#4C4C4C"/>
<path d="M16.3675 14.7043V14.3668H17.3778V19.1083H16.8003C16.6859 19.1085 16.5762 19.0634 16.4951 18.9828C16.414 18.9023 16.3681 18.7928 16.3675 18.6785C15.9458 18.9872 15.4366 19.154 14.914 19.1533C14.261 19.1533 13.6348 18.894 13.1729 18.4324C12.7111 17.9708 12.4514 17.3447 12.451 16.6918C12.4514 16.0388 12.7111 15.4127 13.1729 14.9511C13.6348 14.4896 14.261 14.2303 14.914 14.2303C15.4363 14.2297 15.946 14.3957 16.3675 14.7043ZM12.1892 12.8428V12.9965C12.1892 13.283 12.151 13.517 11.9643 13.7915L11.9418 13.817C11.8795 13.8868 11.819 13.9581 11.7603 14.0308L8.518 18.1003H12.1892V18.6763C12.1892 18.7331 12.1781 18.7893 12.1563 18.8418C12.1345 18.8942 12.1026 18.9419 12.0625 18.982C12.0223 19.0221 11.9745 19.0539 11.922 19.0756C11.8696 19.0973 11.8133 19.1084 11.7565 19.1083H7V18.8368C7 18.5045 7.0825 18.356 7.1875 18.2015L10.6435 13.9228H7.144V12.8428H12.1892ZM18.6025 19.1083C18.507 19.1083 18.4155 19.0703 18.3479 19.0028C18.2804 18.9353 18.2425 18.8438 18.2425 18.7483V12.8428H19.3232V19.1083H18.6025ZM22.5198 14.2003C22.8454 14.2002 23.1678 14.2642 23.4687 14.3887C23.7695 14.5132 24.0429 14.6958 24.2732 14.926C24.5036 15.1561 24.6863 15.4294 24.811 15.7302C24.9357 16.031 24.9999 16.3534 25 16.679C25.0001 17.0046 24.9361 17.3271 24.8115 17.6279C24.687 17.9288 24.5045 18.2022 24.2743 18.4325C24.0441 18.6628 23.7708 18.8455 23.4701 18.9702C23.1693 19.0949 22.8469 19.1592 22.5212 19.1593C21.8636 19.1595 21.2329 18.8984 20.7678 18.4336C20.3026 17.9687 20.0412 17.3381 20.041 16.6805C20.0408 16.0229 20.3018 15.3922 20.7667 14.927C21.2316 14.4619 21.8621 14.2005 22.5198 14.2003ZM14.9148 18.14C15.1078 18.1444 15.2997 18.1102 15.4793 18.0394C15.6589 17.9685 15.8225 17.8625 15.9606 17.7276C16.0986 17.5926 16.2083 17.4315 16.2832 17.2535C16.3581 17.0756 16.3967 16.8845 16.3967 16.6914C16.3967 16.4983 16.3581 16.3072 16.2832 16.1293C16.2083 15.9513 16.0986 15.7902 15.9606 15.6552C15.8225 15.5203 15.6589 15.4143 15.4793 15.3434C15.2997 15.2726 15.1078 15.2384 14.9148 15.2428C14.5363 15.2514 14.1762 15.4078 13.9115 15.6785C13.6469 15.9493 13.4987 16.3128 13.4987 16.6914C13.4987 17.07 13.6469 17.4335 13.9115 17.7043C14.1762 17.975 14.5363 18.1314 14.9148 18.14ZM22.5198 18.1378C22.9066 18.1378 23.2777 17.9841 23.5512 17.7105C23.8248 17.4369 23.9785 17.0659 23.9785 16.679C23.9785 16.2921 23.8248 15.9211 23.5512 15.6475C23.2777 15.374 22.9066 15.2203 22.5198 15.2203C22.1329 15.2203 21.7618 15.374 21.4883 15.6475C21.2147 15.9211 21.061 16.2921 21.061 16.679C21.061 17.0659 21.2147 17.4369 21.4883 17.7105C21.7618 17.9841 22.1329 18.1378 22.5198 18.1378Z" fill="white"/>
</svg>
