<svg width="24" height="24" viewBox="0 0 24 24" fill="none" xmlns="http://www.w3.org/2000/svg">
<path fill-rule="evenodd" clip-rule="evenodd" d="M8.75 2.75C8.75 2.33579 8.41421 2 8 2C7.58579 2 7.25 2.33579 7.25 2.75V3.53297C4.28458 3.80391 3 5.72376 3 8.5V9.09V17C3 20 4.5 22 8 22H16C19.5 22 21 20 21 17V8.5C21 5.72376 19.7154 3.80391 16.75 3.53297V2.75C16.75 2.33579 16.4142 2 16 2C15.5858 2 15.25 2.33579 15.25 2.75V3.5H8.75V2.75ZM7.25 5.04047V5.75C7.25 6.16421 7.58579 6.5 8 6.5C8.41421 6.5 8.75 6.16421 8.75 5.75V5H15.25V5.75C15.25 6.16421 15.5858 6.5 16 6.5C16.4142 6.5 16.75 6.16421 16.75 5.75V5.04047C17.7493 5.15538 18.3468 5.50097 18.7133 5.89568C19.1623 6.37918 19.4726 7.15984 19.4983 8.34H4.50172C4.52736 7.15984 4.83772 6.37918 5.28669 5.89568C5.65321 5.50097 6.25074 5.15538 7.25 5.04047ZM4.5 9.84V17C4.5 18.2701 4.81773 19.0993 5.28669 19.6043C5.73696 20.0892 6.5359 20.5 8 20.5H16C17.4641 20.5 18.263 20.0892 18.7133 19.6043C19.1823 19.0993 19.5 18.2701 19.5 17V9.84H4.5ZM14.6943 13.7C14.6943 13.1477 15.1421 12.7 15.6943 12.7H15.7033C16.2556 12.7 16.7033 13.1477 16.7033 13.7C16.7033 14.2523 16.2556 14.7 15.7033 14.7H15.6943C15.1421 14.7 14.6943 14.2523 14.6943 13.7ZM15.6943 15.7C15.1421 15.7 14.6943 16.1477 14.6943 16.7C14.6943 17.2523 15.1421 17.7 15.6943 17.7H15.7033C16.2556 17.7 16.7033 17.2523 16.7033 16.7C16.7033 16.1477 16.2556 15.7 15.7033 15.7H15.6943ZM10.9951 13.7C10.9951 13.1477 11.4428 12.7 11.9951 12.7H12.0041C12.5564 12.7 13.0041 13.1477 13.0041 13.7C13.0041 14.2523 12.5564 14.7 12.0041 14.7H11.9951C11.4428 14.7 10.9951 14.2523 10.9951 13.7ZM11.9951 15.7C11.4428 15.7 10.9951 16.1477 10.9951 16.7C10.9951 17.2523 11.4428 17.7 11.9951 17.7H12.0041C12.5564 17.7 13.0041 17.2523 13.0041 16.7C13.0041 16.1477 12.5564 15.7 12.0041 15.7H11.9951ZM7.29395 13.7C7.29395 13.1477 7.74166 12.7 8.29395 12.7H8.30293C8.85521 12.7 9.30293 13.1477 9.30293 13.7C9.30293 14.2523 8.85521 14.7 8.30293 14.7H8.29395C7.74166 14.7 7.29395 14.2523 7.29395 13.7ZM8.29395 15.7C7.74166 15.7 7.29395 16.1477 7.29395 16.7C7.29395 17.2523 7.74166 17.7 8.29395 17.7H8.30293C8.85521 17.7 9.30293 17.2523 9.30293 16.7C9.30293 16.1477 8.85521 15.7 8.30293 15.7H8.29395Z" fill="color"/>
</svg>
