<svg width="49" height="48" viewBox="0 0 49 48" fill="none" xmlns="http://www.w3.org/2000/svg">
<path d="M45.5 24C45.5 26.7578 44.9568 29.4885 43.9015 32.0364C42.8461 34.5842 41.2993 36.8992 39.3492 38.8492C37.3992 40.7993 35.0842 42.3461 32.5364 43.4015C29.9885 44.4568 27.2578 45 24.5 45C21.7422 45 19.0115 44.4568 16.4636 43.4015C13.9158 42.3461 11.6008 40.7993 9.65075 38.8492C7.70072 36.8992 6.15388 34.5842 5.09853 32.0363C4.04318 29.4885 3.5 26.7578 3.5 24C3.5 21.2422 4.04318 18.5115 5.09853 15.9636C6.15388 13.4158 7.70073 11.1008 9.65076 9.15075C11.6008 7.20072 13.9158 5.65387 16.4637 4.59853C19.0115 3.54318 21.7423 3 24.5 3C27.2578 3 29.9885 3.54318 32.5364 4.59853C35.0842 5.65388 37.3992 7.20073 39.3493 9.15077C41.2993 11.1008 42.8461 13.4158 43.9015 15.9637C44.9568 18.5115 45.5 21.2423 45.5 24L45.5 24Z" stroke="url(#paint0_angular_37_8)" stroke-width="6" stroke-linecap="round" stroke-linejoin="round" stroke-dasharray="0.1 8"/>
<defs>
<radialGradient id="paint0_angular_37_8" cx="0" cy="0" r="1" gradientUnits="userSpaceOnUse" gradientTransform="translate(24.5 24) rotate(169.077) scale(21.0187 21.0187)">
<stop stop-color="#2A660A"/>
<stop offset="1" stop-color="#2A660A" stop-opacity="0"/>
</radialGradient>
</defs>
</svg>
